Coordinates
version=1
nRows=12
nColumns=24
inDegrees=yes

Units are S.I. units (second, meters, Newtons, ...)
Angles are in degrees.

endheader
time	pelvis_tilt	pelvis_list	pelvis_rotation	pelvis_tx	pelvis_ty	pelvis_tz	hip_flexion_r	hip_adduction_r	hip_rotation_r	knee_angle_r	ankle_angle_r	subtalar_angle_r	mtp_angle_r	hip_flexion_l	hip_adduction_l	hip_rotation_l	knee_angle_l	ankle_angle_l	subtalar_angle_l	mtp_angle_l	lumbar_extension	lumbar_bending	lumbar_rotation
      3.26500000	     -8.11681999	      2.38318424	     -8.30756839	     -1.22021529	     -0.04411148	      0.70652565	    -10.17522631	     -3.82841587	     10.64289359	    -10.93792458	     11.61732400	      3.88780988	     13.03994207	     38.26065819	     -2.80541680	     -7.18537272	    -21.90421932	      3.04242613	      5.51437491	      3.61804896	      4.85198685	      1.10544085	      7.54074290
      3.27000000	     -8.25709917	      2.66515633	     -8.56663044	     -1.21222349	     -0.04529140	      0.70689326	    -10.07278330	     -4.19490606	     10.54298835	    -11.57589317	     11.34919506	      4.36669096	     13.88398016	     38.27608124	     -2.59090687	     -7.22126823	    -22.16323880	      2.62951758	      4.92537048	      3.84071174	      5.12069663	      0.70367128	      7.75123613
      3.27500000	     -8.40425469	      2.92738513	     -8.82970476	     -1.20429822	     -0.04644235	      0.70734569	     -9.90894369	     -4.50060265	     10.71895652	    -12.34164874	     11.08086090	      4.53946475	     14.08880565	     38.35750515	     -2.40883243	     -7.27241618	    -22.61944928	      2.22278677	      4.39158292	      3.81705964	      5.38423629	      0.31349362	      7.97230636
      3.28000000	     -8.59804849	      3.28188643	     -8.94873495	     -1.19625891	     -0.04763012	      0.70746674	     -9.59961885	     -4.93048586	     10.24209815	    -13.24868632	     10.83905184	      5.42166609	     15.09645937	     38.52831144	     -2.03027030	     -7.11695733	    -23.14949116	      1.51491652	      3.80324243	      4.28110040	      5.72561069	     -0.16965828	      8.02851928
      3.28500000	     -8.80101234	      3.61345572	     -9.05452738	     -1.18829667	     -0.04874531	      0.70765080	     -9.22506450	     -5.30522211	      9.93446021	    -14.24602949	     10.41200672	      5.98112108	     16.16590244	     38.76643387	     -1.66776093	     -6.88196066	    -23.81677163	      0.64115589	      3.22664501	      5.12595630	      6.06180615	     -0.64282609	      8.08468092
      3.29000000	     -8.94962320	      3.97768125	     -9.11368718	     -1.18033057	     -0.04971343	      0.70792620	     -8.86952418	     -5.69306512	      9.70450926	    -15.28883324	      9.74824519	      6.24526974	     17.62654535	     38.98267811	     -1.24931353	     -6.57768753	    -24.52862987	     -0.57718062	      2.68931985	      7.10752887	      6.34433676	     -1.19097608	      8.06437806
      3.29500000	     -9.20661177	      4.31196047	     -9.12624683	     -1.17253018	     -0.05076143	      0.70797063	     -8.25575490	     -6.04353056	      9.31177913	    -16.62135905	      9.30396823	      6.98725254	     18.17946621	     39.41269694	     -0.79788442	     -6.01259379	    -25.46372047	     -1.37219314	      2.20647015	      7.75781131	      6.70763513	     -1.67620659	      8.05187694
      3.30000000	     -9.35678752	      4.68720284	     -9.11591945	     -1.16469783	     -0.05157142	      0.70811471	     -7.70783389	     -6.44105537	      8.91709238	    -17.95487245	      8.39274490	      7.34652466	     19.97653904	     39.71088410	     -0.27368426	     -5.39351252	    -26.28906307	     -2.58904621	      1.57890054	     10.06615431	      6.96660692	     -2.24686591	      7.97552059
      3.30500000	     -9.61017021	      5.12926033	     -9.01995678	     -1.15681521	     -0.05248919	      0.70810398	     -6.94606127	     -6.88704131	      8.47693710	    -19.54223895	      7.71564794	      7.99899502	     20.43799037	     40.18527206	      0.38342938	     -4.66654247	    -27.27131239	     -3.08253226	      1.08424192	     10.37631314	      7.35088755	     -2.88090518	      7.83149001
      3.31000000	     -9.73122967	      5.51263016	     -8.87570751	     -1.14898283	     -0.05322935	      0.70799805	     -6.26899745	     -7.32455300	      7.78598318	    -21.13273821	      6.54524246	      8.55044651	     22.61531633	     40.49842200	      1.05056964	     -3.88492286	    -28.17380819	     -3.58414043	      0.51875780	     11.42072743	      7.56084674	     -3.47842941	      7.63683655
      3.31500000	     -9.92416160	      5.97053426	     -8.75058758	     -1.14112732	     -0.05397574	      0.70797570	     -5.40820300	     -7.79907441	      7.36492310	    -22.95071583	      5.49686840	      9.09001361	     23.20666061	     40.87200790	      1.76620015	     -3.25198881	    -29.02978329	     -3.83352479	     -0.30761145	     11.34325816	      7.87166145	     -4.14715973	      7.48099075
      3.32000000	     -9.96338845	      6.41129821	     -8.56266313	     -1.13321380	     -0.05456576	      0.70777132	     -4.68711610	     -8.33986223	      6.63567531	    -24.67975355	      3.85741568	      9.49468376	     26.05270123	     41.05143970	      2.54437747	     -2.64354940	    -29.87069157	     -3.55037540	     -1.07678116	     10.05628925	      8.00317167	     -4.81821099	      7.25034523
